# xmcd CD database file
#
# Track frame offsets:
#	150
#	18297
#	33500
#	52642
#	68127
#	83971
#	106158
#	131743
#	148233
#	170266
#
# Disc length: 2544 seconds
#
# Revision: 5
# Processed by: cddbd v1.5.2PL0 Copyright (c) Steve Scherf et al.
# Submitted via: CDex 1.70beta2
#
DISCID=7e09ee0a
DTITLE=Patty Loveless - Strong Heart
DYEAR=2000
DGENRE=Country
TTITLE0=You're So Cool
TTITLE1=The Last Thing On My Mind
TTITLE2=My Heart Will Never Break This Way Again
TTITLE3=You Don't Get No More
TTITLE4=That's The Kind Of Mood I'm In
TTITLE5=Thirsty
TTITLE6=Strong Heart
TTITLE7=The Key Of Love
TTITLE8=She Never Stopped Loving Him
TTITLE9=Pieces On The Ground
EXTD=YEAR: 2000
EXTT0=
EXTT1=
EXTT2=
EXTT3=
EXTT4=
EXTT5=
EXTT6=
EXTT7=
EXTT8=
EXTT9=
PLAYORDER=
